{"glyphs":{"฿":{"ha":924,"x_min":107,"x_max":868,"o":"m 383 28 l 107 28 l 107 942 l 383 942 l 383 1083 l 542 1083 l 542 942 l 593 942 q 769 878 706 942 q 833 703 833 815 q 788 567 833 611 q 656 511 743 522 l 656 503 q 739 487 700 500 q 806 448 778 474 q 851 384 835 422 q 868 292 868 346 q 850 188 868 236 q 801 103 832 139 q 726 48 769 68 q 632 28 682 28 l 542 28 l 542 -125 l 383 -125 l 383 28 m 586 185 q 655 209 629 185 q 681 276 681 233 l 681 325 q 655 392 681 368 q 586 417 629 417 l 529 417 l 529 185 l 586 185 m 550 557 q 619 580 594 557 q 644 646 644 603 l 644 694 q 619 760 644 738 q 550 783 594 783 l 529 783 l 529 557 l 550 557 m 397 185 l 397 417 l 289 417 l 289 185 l 397 185 m 397 557 l 397 783 l 289 783 l 289 557 l 397 557 z "},"ก":{"ha":967,"x_min":61,"x_max":856,"o":"m 183 404 l 61 454 q 101 592 68 531 q 187 696 133 653 q 313 763 240 739 q 471 786 385 786 q 631 763 560 786 q 753 698 703 740 q 829 595 803 656 q 856 461 856 535 l 856 0 l 650 0 l 650 435 q 638 515 650 478 q 602 579 626 551 q 541 623 578 607 q 454 639 504 639 q 329 607 383 639 q 251 528 275 575 l 303 508 q 371 464 353 489 q 389 389 389 439 l 389 0 l 183 0 l 183 404 z "},"ภ":{"ha":990,"x_min":60,"x_max":879,"o":"m 243 -17 q 112 28 164 -17 q 60 150 60 72 q 105 265 60 221 q 221 315 150 308 l 221 404 l 99 454 q 136 592 104 531 q 221 696 168 653 q 344 763 274 739 q 500 786 415 786 q 659 763 589 786 q 778 697 729 739 q 853 594 826 654 q 879 461 879 533 l 879 0 l 674 0 l 674 435 q 628 584 674 529 q 486 639 582 639 q 363 606 414 639 q 289 528 311 574 l 340 508 q 405 469 383 492 q 426 389 426 447 l 426 158 q 374 30 426 76 q 243 -17 322 -17 m 238 218 q 192 200 210 218 q 174 150 174 182 q 192 100 174 118 q 238 82 210 82 q 283 100 265 82 q 301 150 301 118 q 283 200 301 182 q 238 218 265 218 z "},"ฎ":{"ha":990,"x_min":60,"x_max":879,"o":"m 326 -439 q 222 -397 263 -439 q 181 -286 181 -354 q 222 -176 181 -218 q 326 -133 263 -133 q 367 -137 349 -133 q 401 -147 385 -140 q 433 -162 417 -153 q 469 -183 450 -171 l 493 -144 l 628 -144 l 565 -239 l 674 -303 l 679 -303 l 674 -150 l 674 435 q 628 584 674 529 q 486 639 582 639 q 363 606 414 639 q 289 528 311 574 l 340 508 q 405 469 383 492 q 426 389 426 447 l 426 158 q 374 30 426 76 q 243 -17 322 -17 q 112 28 164 -17 q 60 150 60 72 q 105 265 60 221 q 221 315 150 308 l 221 404 l 99 454 q 136 592 104 531 q 221 696 168 653 q 344 763 274 739 q 500 786 415 786 q 659 763 589 786 q 778 697 729 739 q 853 594 826 654 q 879 461 879 533 l 879 -346 q 853 -406 879 -382 q 786 -431 826 -431 l 689 -431 l 513 -319 l 500 -339 q 466 -384 483 -365 q 429 -415 449 -403 q 385 -433 410 -428 q 326 -439 360 -439 m 238 82 q 283 100 265 82 q 301 150 301 118 q 283 200 301 182 q 238 218 265 218 q 192 200 210 218 q 174 150 174 182 q 192 100 174 118 q 238 82 210 82 m 336 -343 q 377 -331 364 -343 q 411 -282 390 -318 l 421 -264 q 369 -235 383 -240 q 336 -229 354 -229 q 297 -272 297 -229 l 297 -300 q 336 -343 297 -343 z "},"ฏ":{"ha":990,"x_min":60,"x_max":879,"o":"m 275 -439 q 170 -397 211 -439 q 129 -286 129 -354 q 170 -176 129 -218 q 275 -133 211 -133 q 328 -140 306 -133 q 365 -156 350 -146 q 392 -179 381 -167 q 415 -204 404 -192 l 424 -214 l 426 -214 l 463 -144 l 600 -144 l 496 -285 l 521 -308 l 604 -239 l 694 -307 l 674 -144 l 674 435 q 628 584 674 529 q 486 639 582 639 q 363 606 414 639 q 289 528 311 574 l 340 508 q 405 469 383 492 q 426 389 426 447 l 426 158 q 374 30 426 76 q 243 -17 322 -17 q 112 28 164 -17 q 60 150 60 72 q 105 265 60 221 q 221 315 150 308 l 221 404 l 99 454 q 136 592 104 531 q 221 696 168 653 q 344 763 274 739 q 500 786 415 786 q 659 763 589 786 q 778 697 729 739 q 853 594 826 654 q 879 461 879 533 l 879 -346 q 853 -406 879 -382 q 786 -431 826 -431 l 701 -431 l 604 -354 l 500 -440 l 425 -357 l 424 -357 l 415 -367 q 392 -392 404 -379 q 365 -415 381 -404 q 328 -432 350 -425 q 275 -439 306 -439 m 238 82 q 283 100 265 82 q 301 150 301 118 q 283 200 301 182 q 238 218 265 218 q 192 200 210 218 q 174 150 174 182 q 192 100 174 118 q 238 82 210 82 m 285 -343 q 317 -331 304 -343 q 349 -300 331 -319 l 363 -285 l 349 -271 q 317 -240 329 -251 q 285 -229 304 -229 q 246 -272 246 -229 l 246 -300 q 285 -343 246 -343 z "},"ฦ":{"ha":990,"x_min":60,"x_max":879,"o":"m 674 435 q 628 584 674 529 q 486 639 582 639 q 363 606 414 639 q 289 528 311 574 l 340 508 q 405 469 383 492 q 426 389 426 447 l 426 158 q 374 30 426 76 q 243 -17 322 -17 q 112 28 164 -17 q 60 150 60 72 q 105 265 60 221 q 221 315 150 308 l 221 404 l 99 454 q 136 592 104 531 q 221 696 168 653 q 344 763 274 739 q 500 786 415 786 q 659 763 589 786 q 778 697 729 739 q 853 594 826 654 q 879 461 879 533 l 879 -278 l 674 -278 l 674 435 m 238 82 q 283 100 265 82 q 301 150 301 118 q 283 200 301 182 q 238 218 265 218 q 192 200 210 218 q 174 150 174 182 q 192 100 174 118 q 238 82 210 82 z "},"ถ":{"ha":983,"x_min":61,"x_max":872,"o":"m 667 435 q 615 582 667 525 q 458 639 563 639 q 330 606 383 639 q 253 526 276 572 l 303 508 q 371 464 353 489 q 389 389 389 439 l 389 315 q 505 265 460 308 q 550 150 550 221 q 498 28 550 72 q 367 -17 446 -17 q 235 30 288 -17 q 183 158 183 76 l 183 404 l 61 454 q 101 592 68 531 q 188 696 133 653 q 315 763 242 739 q 476 786 389 786 q 641 763 568 786 q 765 698 714 740 q 844 595 817 656 q 872 461 872 535 l 872 0 l 667 0 l 667 435 m 372 218 q 326 200 344 218 q 308 150 308 182 q 326 100 308 118 q 372 82 344 82 q 418 100 400 82 q 436 150 436 118 q 418 200 436 182 q 372 218 400 218 z "},"ฤ":{"ha":983,"x_min":61,"x_max":872,"o":"m 667 435 q 615 582 667 525 q 458 639 563 639 q 330 606 383 639 q 253 526 276 572 l 303 508 q 371 464 353 489 q 389 389 389 439 l 389 315 q 505 265 460 308 q 550 150 550 221 q 498 28 550 72 q 367 -17 446 -17 q 235 30 288 -17 q 183 158 183 76 l 183 404 l 61 454 q 101 592 68 531 q 188 696 133 653 q 315 763 242 739 q 476 786 389 786 q 641 763 568 786 q 765 698 714 740 q 844 595 817 656 q 872 461 872 535 l 872 -278 l 667 -278 l 667 435 m 372 218 q 326 200 344 218 q 308 150 308 182 q 326 100 308 118 q 372 82 344 82 q 418 100 400 82 q 436 150 436 118 q 418 200 436 182 q 372 218 400 218 z "},"ญ":{"ha":1369,"x_min":61,"x_max":1276,"o":"m 949 -17 q 816 3 874 -17 q 719 59 758 24 q 659 143 679 94 q 639 250 639 192 l 639 435 q 590 583 639 528 q 444 639 540 639 q 324 606 374 639 q 251 528 274 574 l 303 508 q 371 464 353 489 q 389 389 389 439 l 389 315 q 505 265 460 308 q 550 150 550 221 q 498 28 550 72 q 367 -17 446 -17 q 235 30 288 -17 q 183 158 183 76 l 183 404 l 61 454 q 99 592 67 531 q 183 696 131 653 q 306 763 235 739 q 463 786 376 786 q 621 763 550 786 q 742 698 692 740 q 818 595 792 656 q 844 461 844 535 l 844 254 q 872 172 844 203 q 949 140 900 140 q 1025 172 997 140 q 1053 254 1053 203 l 1053 769 l 1258 769 l 1258 250 q 1238 143 1258 192 q 1178 59 1218 94 q 1081 3 1139 24 q 949 -17 1024 -17 m 618 -251 q 667 -126 618 -169 q 790 -82 715 -82 q 908 -122 865 -82 q 950 -224 950 -162 q 933 -287 950 -262 q 896 -321 915 -312 l 896 -324 l 957 -324 q 1040 -285 1006 -324 q 1075 -171 1075 -246 l 1075 -144 l 1276 -144 l 1276 -171 q 1253 -289 1276 -236 q 1184 -379 1229 -342 q 1074 -437 1139 -417 q 928 -458 1010 -458 q 699 -403 781 -458 q 618 -251 618 -347 m 372 82 q 418 100 400 82 q 436 150 436 118 q 418 200 436 182 q 372 218 400 218 q 326 200 344 218 q 308 150 308 182 q 326 100 308 118 q 372 82 344 82 m 790 -306 q 833 -289 818 -306 q 849 -243 849 -272 q 833 -197 849 -214 q 790 -181 818 -181 q 747 -197 763 -181 q 732 -243 732 -214 q 747 -289 732 -272 q 790 -306 763 -306 z "},"ฌ":{"ha":1360,"x_min":61,"x_max":1243,"o":"m 721 -17 q 592 30 642 -17 q 543 156 543 76 q 573 258 543 217 q 654 318 603 300 q 644 376 644 339 l 644 436 q 633 518 644 481 q 596 583 621 556 q 533 624 571 610 q 443 639 494 639 q 322 606 372 639 q 251 528 272 572 l 288 514 q 356 467 338 494 q 374 389 374 439 l 374 314 q 482 264 440 307 q 524 150 524 221 q 473 28 524 72 q 346 -17 422 -17 q 218 30 268 -17 q 168 158 168 76 l 168 410 l 61 453 q 98 591 67 529 q 181 696 129 653 q 301 763 232 739 q 454 786 371 786 q 621 763 547 786 q 746 696 694 739 q 824 593 797 653 q 850 461 850 533 l 850 260 l 1029 163 l 1038 163 l 1038 769 l 1243 769 l 1243 0 l 1047 0 l 886 88 q 825 11 868 39 q 721 -17 782 -17 m 721 82 q 768 100 751 82 q 785 144 785 118 l 785 167 q 768 211 785 193 q 721 229 751 229 q 674 211 690 229 q 657 167 657 193 l 657 144 q 674 100 657 118 q 721 82 690 82 m 351 82 q 394 100 378 82 q 410 150 410 118 q 394 200 410 182 q 351 218 378 218 q 309 200 325 218 q 293 150 293 182 q 309 100 293 118 q 351 82 325 82 z "},"ณ":{"ha":1396,"x_min":61,"x_max":1357,"o":"m 1174 -17 q 1060 15 1107 -17 q 997 101 1014 46 l 819 0 l 622 0 l 622 435 q 578 583 622 526 q 442 639 533 639 q 324 606 374 639 q 253 529 275 574 l 303 508 q 370 463 351 488 q 389 389 389 439 l 389 315 q 505 265 460 308 q 550 150 550 221 q 498 28 550 72 q 367 -17 446 -17 q 235 30 288 -17 q 183 158 183 76 l 183 404 l 61 454 q 98 592 67 531 q 180 696 129 653 q 300 763 231 739 q 451 786 369 786 q 608 763 539 786 q 726 698 678 740 q 801 595 775 656 q 828 461 828 535 l 828 160 l 836 160 l 1032 269 l 1032 769 l 1238 769 l 1238 382 q 1235 353 1238 368 q 1224 322 1233 338 q 1320 265 1283 308 q 1357 156 1357 221 q 1306 30 1357 76 q 1174 -17 1254 -17 m 1174 82 q 1225 100 1207 82 q 1243 144 1243 118 l 1243 167 q 1225 211 1243 193 q 1174 229 1207 229 q 1122 211 1140 229 q 1104 167 1104 193 l 1104 144 q 1122 100 1104 118 q 1174 82 1140 82 m 372 218 q 326 200 344 218 q 308 150 308 182 q 326 100 308 118 q 372 82 344 82 q 418 100 400 82 q 436 150 436 118 q 418 200 436 182 q 372 218 400 218 z "},"ข":{"ha":929,"x_min":22,"x_max":815,"o":"m 481 -17 q 246 44 332 -17 q 160 207 160 104 q 166 262 160 236 q 186 313 172 288 q 222 364 200 338 q 274 419 243 390 q 313 460 296 442 q 340 495 329 478 q 356 531 350 513 q 361 572 361 549 q 330 651 361 617 q 229 686 299 686 q 186 682 204 686 l 188 675 l 201 675 q 278 647 247 675 q 310 567 310 619 q 270 471 310 508 q 168 433 231 433 q 64 474 106 433 q 22 585 22 514 q 88 731 22 675 q 268 786 154 786 q 456 732 386 786 q 525 578 525 678 q 508 482 525 529 q 444 382 492 435 q 381 300 397 329 q 365 247 365 271 l 365 235 q 394 167 365 194 q 481 140 422 140 q 574 176 539 140 q 610 264 610 211 l 610 769 l 815 769 l 815 265 q 791 147 815 199 q 722 58 767 94 q 616 2 678 21 q 481 -17 554 -17 m 168 518 q 209 533 193 518 q 225 576 225 549 q 209 619 225 604 q 168 635 193 635 q 127 619 143 635 q 111 576 111 604 q 127 533 111 549 q 168 518 143 518 z "},"ช":{"ha":942,"x_min":22,"x_max":828,"o":"m 481 -17 q 246 44 332 -17 q 160 207 160 104 q 167 263 160 238 q 188 314 174 289 q 223 365 201 339 q 274 419 244 390 q 313 460 296 442 q 340 495 329 478 q 356 531 351 513 q 361 572 361 549 q 330 651 361 617 q 229 686 299 686 q 186 682 204 686 l 188 674 q 201 675 192 675 q 278 647 247 675 q 310 567 310 619 q 270 471 310 508 q 168 433 231 433 q 64 474 106 433 q 22 585 22 514 q 88 731 22 675 q 268 786 154 786 q 456 732 386 786 q 525 578 525 678 q 510 487 525 533 q 444 382 494 440 q 381 300 397 329 q 365 247 365 271 l 365 235 q 394 167 365 194 q 481 140 422 140 q 574 166 539 140 q 610 257 610 192 l 610 376 q 556 500 610 500 l 547 500 l 547 633 l 556 633 q 608 650 588 633 q 628 715 628 667 l 628 803 l 828 803 l 828 747 q 793 653 828 694 q 683 603 758 613 l 683 593 q 793 495 763 565 q 824 318 824 425 q 798 164 824 228 q 726 60 772 100 q 617 1 681 19 q 481 -17 554 -17 m 168 518 q 209 533 193 518 q 225 576 225 549 q 209 619 225 604 q 168 635 193 635 q 127 619 143 635 q 111 576 111 604 q 127 533 111 549 q 168 518 143 518 z "},"ฃ":{"ha":964,"x_min":29,"x_max":850,"o":"m 524 -17 q 394 1 453 -17 q 292 53 335 19 q 224 137 249 88 q 200 249 200 186 q 210 314 200 285 q 236 368 219 343 q 273 415 253 393 q 314 458 293 436 q 367 515 342 486 q 411 581 393 544 l 401 586 q 315 502 368 538 q 193 467 263 467 q 76 509 122 467 q 29 626 29 551 q 76 744 29 701 q 193 786 122 786 q 303 745 263 786 q 344 644 344 704 q 335 603 344 625 l 338 600 q 376 640 361 615 q 392 700 392 665 l 392 769 l 551 769 l 551 653 q 526 533 551 583 q 472 442 501 483 q 426 367 446 404 q 406 281 406 329 l 406 250 q 439 172 406 203 q 524 140 472 140 q 611 176 578 140 q 644 264 644 211 l 644 769 l 850 769 l 850 265 q 826 147 850 199 q 760 58 803 94 q 656 2 717 21 q 524 -17 596 -17 m 194 564 q 235 581 219 564 q 250 626 250 599 q 235 672 250 654 q 194 689 219 689 q 154 672 169 689 q 139 626 139 654 q 154 581 139 599 q 194 564 169 564 z "},"ซ":{"ha":976,"x_min":29,"x_max":863,"o":"m 519 -17 q 391 1 450 -17 q 290 53 332 19 q 224 137 247 88 q 200 249 200 186 q 210 314 200 285 q 236 368 219 343 q 273 415 253 393 q 314 458 293 436 q 367 515 342 486 q 411 581 393 544 l 401 586 q 315 502 368 538 q 193 467 263 467 q 76 509 122 467 q 29 626 29 551 q 76 744 29 701 q 193 786 122 786 q 303 745 263 786 q 344 644 344 704 q 335 603 344 625 l 338 600 q 376 640 361 615 q 392 700 392 665 l 392 769 l 551 769 l 551 653 q 526 533 551 583 q 472 442 501 483 q 426 367 446 404 q 406 281 406 329 l 406 250 q 438 172 406 203 q 522 140 469 140 q 610 166 575 140 q 644 257 644 192 l 644 376 q 590 500 644 500 l 582 500 l 582 633 l 590 633 q 642 650 622 633 q 663 715 663 667 l 663 803 l 863 803 l 863 747 q 828 653 863 694 q 718 603 793 613 l 718 593 q 828 495 797 565 q 858 318 858 425 q 833 164 858 228 q 762 60 807 100 q 654 1 717 19 q 519 -17 592 -17 m 194 564 q 235 581 219 564 q 250 626 250 599 q 235 672 250 654 q 194 689 219 689 q 154 672 169 689 q 139 626 139 654 q 154 581 139 599 q 194 564 169 564 z "},"ฆ":{"ha":958,"x_min":46,"x_max":842,"o":"m 239 -17 q 107 30 158 -17 q 56 156 56 76 q 103 276 56 231 q 225 326 150 322 q 250 394 225 367 q 314 453 275 421 q 376 507 346 478 q 428 581 407 536 l 418 586 q 333 502 385 538 q 214 467 282 467 q 93 509 140 467 q 46 626 46 551 q 93 744 46 701 q 214 786 140 786 q 321 745 281 786 q 361 644 361 704 q 351 603 361 625 l 354 600 q 393 640 378 615 q 408 700 408 665 l 408 769 l 568 769 l 568 653 q 560 589 568 618 q 542 535 553 560 q 516 488 531 510 q 488 447 501 467 q 447 387 464 415 q 431 324 431 358 l 431 260 l 629 163 l 636 163 l 636 769 l 842 769 l 842 0 l 644 0 l 418 115 q 358 19 406 54 q 239 -17 310 -17 m 239 82 q 290 100 272 82 q 308 144 308 118 l 308 167 q 290 211 308 193 q 239 229 272 229 q 188 211 206 229 q 169 167 169 193 l 169 144 q 188 100 169 118 q 239 82 206 82 m 211 564 q 251 581 236 564 q 267 626 267 599 q 251 672 267 654 q 211 689 236 689 q 171 672 186 689 q 156 626 156 654 q 171 581 156 599 q 211 564 186 564 z "},"ฑ":{"ha":975,"x_min":6,"x_max":858,"o":"m 185 321 q 212 393 185 364 q 275 453 239 422 q 340 510 314 485 q 388 581 367 536 l 378 586 q 292 502 344 538 q 169 467 239 467 q 52 509 99 467 q 6 626 6 551 q 52 744 6 701 q 169 786 99 786 q 280 745 239 786 q 321 644 321 704 q 311 603 321 625 l 314 600 q 353 640 338 615 q 368 700 368 665 l 368 769 l 528 769 l 528 707 q 504 624 528 671 l 513 617 l 571 693 q 643 759 608 742 q 722 776 678 776 q 826 733 793 776 q 858 619 858 690 l 858 0 l 653 0 l 653 565 q 632 592 653 592 q 610 588 622 592 q 579 564 599 583 l 428 419 q 399 374 408 400 q 390 324 390 349 l 390 0 l 185 0 l 185 321 m 171 564 q 211 581 196 564 q 226 626 226 599 q 211 672 226 654 q 171 689 196 689 q 131 672 146 689 q 115 626 115 654 q 131 581 115 599 q 171 564 146 564 z "},"ค":{"ha":1022,"x_min":111,"x_max":911,"o":"m 111 454 q 139 590 111 529 q 219 695 167 651 q 345 763 271 739 q 511 786 419 786 q 677 763 603 786 q 803 695 751 739 q 883 590 856 651 q 911 454 911 529 l 911 0 l 706 0 l 706 440 q 654 580 706 531 q 511 629 603 629 q 368 580 419 629 q 317 440 317 531 l 317 318 l 324 318 q 394 425 344 382 q 513 468 444 468 q 622 429 579 468 q 665 321 665 390 q 622 213 665 251 q 513 174 579 174 q 422 204 460 174 q 375 283 385 235 l 372 285 q 327 208 338 253 q 317 111 317 164 l 317 0 l 111 0 l 111 454 m 511 260 q 551 276 536 260 q 567 321 567 293 q 551 365 567 349 q 511 382 536 382 q 471 365 486 382 q 456 321 456 349 q 471 276 456 293 q 511 260 486 260 z "},"ศ":{"ha":1022,"x_min":111,"x_max":911,"o":"m 911 814 q 891 726 911 764 q 835 664 871 688 q 891 569 871 622 q 911 454 911 517 l 911 0 l 706 0 l 706 440 q 654 580 706 531 q 511 629 603 629 q 368 580 419 629 q 317 440 317 531 l 317 318 l 324 318 q 394 425 344 382 q 513 468 444 468 q 622 429 579 468 q 665 321 665 390 q 622 213 665 251 q 513 174 579 174 q 422 204 460 174 q 375 283 385 235 l 372 285 q 327 208 338 253 q 317 111 317 164 l 317 0 l 111 0 l 111 454 q 139 590 111 529 q 219 695 167 651 q 345 763 271 739 q 511 786 419 786 q 616 777 567 786 q 707 751 665 768 l 707 863 l 911 863 l 911 814 m 511 260 q 551 276 536 260 q 567 321 567 293 q 551 365 567 349 q 511 382 536 382 q 471 365 486 382 q 456 321 456 349 q 471 276 456 293 q 511 260 486 260 z "},"ฅ":{"ha":1050,"x_min":111,"x_max":939,"o":"m 111 563 q 185 727 111 668 q 386 786 260 786 l 525 675 l 664 786 q 865 727 790 786 q 939 563 939 668 l 939 0 l 733 0 l 733 535 q 717 597 733 575 q 672 628 700 619 l 525 514 l 378 628 q 333 597 350 619 q 317 535 317 575 l 317 315 l 324 315 q 399 422 346 379 q 526 465 453 465 q 636 426 593 465 q 679 318 679 388 q 636 210 679 249 q 526 171 593 171 q 434 202 472 171 q 389 285 396 233 l 385 286 q 328 211 339 254 q 317 108 317 168 l 317 0 l 111 0 l 111 563 m 525 257 q 565 274 550 257 q 581 318 581 290 q 565 363 581 346 q 525 379 550 379 q 485 363 500 379 q 469 318 469 346 q 485 274 469 290 q 525 257 500 257 z "},"ง":{"ha":806,"x_min":31,"x_max":689,"o":"m 274 0 l 31 550 l 231 550 l 410 143 l 483 143 l 483 454 q 367 504 413 461 q 322 619 322 547 q 374 742 322 697 q 506 786 426 786 q 637 740 585 786 q 689 611 689 693 l 689 0 l 274 0 m 500 551 q 546 569 528 551 q 564 619 564 588 q 546 669 564 651 q 500 688 528 688 q 454 669 472 688 q 436 619 436 651 q 454 569 436 588 q 500 551 472 551 z "},"จ":{"ha":892,"x_min":36,"x_max":781,"o":"m 535 -17 q 435 -3 481 -17 q 357 35 389 10 q 307 94 325 60 q 289 174 289 129 l 289 196 q 163 243 213 199 q 114 363 114 288 q 167 484 114 439 q 299 529 219 529 q 433 483 382 529 q 483 354 483 436 l 483 179 q 497 142 483 154 q 529 131 510 131 q 562 142 549 131 q 575 179 575 154 l 575 467 q 524 588 575 546 q 386 629 474 629 q 253 600 308 629 q 163 524 199 571 l 36 636 q 182 745 93 704 q 410 786 271 786 q 688 706 596 786 q 781 490 781 626 l 781 174 q 763 94 781 129 q 713 35 744 60 q 635 -3 681 10 q 535 -17 589 -17 m 293 294 q 340 313 321 294 q 358 363 358 331 q 340 413 358 394 q 293 431 321 431 q 247 413 265 431 q 228 363 228 394 q 247 313 228 331 q 293 294 265 294 z "},"ฐ":{"ha":892,"x_min":36,"x_max":785,"o":"m 785 814 q 768 732 785 768 q 721 672 751 696 q 766 590 751 636 q 781 490 781 544 l 781 174 q 763 94 781 129 q 713 35 744 60 q 635 -3 681 10 q 535 -17 589 -17 q 435 -3 481 -17 q 357 35 389 10 q 307 94 325 60 q 289 174 289 129 l 289 196 q 163 243 213 199 q 114 363 114 288 q 167 484 114 439 q 299 529 219 529 q 433 483 382 529 q 483 354 483 436 l 483 179 q 497 142 483 154 q 529 131 510 131 q 562 142 549 131 q 575 179 575 154 l 575 467 q 524 588 575 546 q 386 629 474 629 q 253 600 308 629 q 163 524 199 571 l 36 636 q 182 745 93 704 q 410 786 271 786 q 581 763 506 786 l 581 863 l 785 863 l 785 814 m 179 -439 q 80 -397 118 -439 q 42 -286 42 -354 q 80 -176 42 -218 q 179 -133 118 -133 q 263 -156 235 -133 q 306 -204 290 -178 l 314 -218 l 315 -218 l 353 -135 l 476 -135 l 389 -276 l 413 -300 l 482 -240 l 624 -347 l 644 -347 l 644 -297 q 558 -268 592 -296 q 525 -194 525 -240 q 559 -113 525 -144 q 649 -82 593 -82 q 743 -115 706 -82 q 781 -208 781 -147 l 781 -346 q 756 -406 781 -382 q 696 -431 732 -431 l 574 -431 l 482 -360 l 397 -437 l 317 -350 l 315 -350 l 306 -367 q 263 -416 290 -393 q 179 -439 235 -439 m 293 294 q 340 313 321 294 q 358 363 358 331 q 340 413 358 394 q 293 431 321 431 q 247 413 265 431 q 228 363 228 394 q 247 313 228 331 q 293 294 265 294 m 188 -343 q 218 -332 208 -343 q 243 -300 228 -321 l 253 -286 l 243 -272 q 216 -240 228 -251 q 188 -229 204 -229 q 156 -275 156 -229 l 156 -301 q 188 -343 156 -343 m 649 -236 q 679 -225 668 -236 q 690 -194 690 -214 q 679 -164 690 -175 q 649 -153 668 -153 q 618 -164 629 -153 q 607 -194 607 -175 q 618 -225 607 -214 q 649 -236 629 -236 z "},"ฉ":{"ha":981,"x_min":58,"x_max":942,"o":"m 758 -17 q 646 15 692 -17 q 583 100 600 46 l 417 0 l 219 0 l 219 132 q 103 182 149 139 q 58 297 58 225 q 110 419 58 375 q 242 464 163 464 q 373 417 321 464 q 425 289 425 371 l 425 160 l 433 160 l 618 269 l 618 475 q 576 588 618 547 q 446 629 535 629 q 363 618 399 629 q 299 589 326 607 q 252 549 272 571 q 215 504 232 526 l 83 619 q 226 741 138 696 q 456 786 314 786 q 733 709 642 786 q 824 482 824 632 l 824 382 q 822 356 824 371 q 808 322 819 340 q 906 265 869 308 q 942 156 942 221 q 890 30 942 76 q 758 -17 839 -17 m 758 82 q 810 100 792 82 q 828 144 828 118 l 828 167 q 810 211 828 193 q 758 229 792 229 q 707 211 725 229 q 689 167 689 193 l 689 144 q 707 100 689 118 q 758 82 725 82 m 236 229 q 282 247 264 229 q 300 297 300 265 q 282 347 300 329 q 236 365 264 365 q 190 347 208 365 q 172 297 172 329 q 190 247 172 265 q 236 229 208 229 z "},"ด":{"ha":1022,"x_min":111,"x_max":911,"o":"m 111 454 q 139 590 111 529 q 219 695 167 651 q 345 763 271 739 q 511 786 419 786 q 677 763 603 786 q 803 695 751 739 q 883 590 856 651 q 911 454 911 529 l 911 0 l 706 0 l 706 440 q 654 580 706 531 q 511 629 603 629 q 368 580 419 629 q 317 440 317 531 l 317 125 l 357 125 l 403 178 l 443 213 q 376 265 401 229 q 351 349 351 300 q 397 456 351 415 q 511 497 442 497 q 626 456 581 497 q 671 349 671 415 q 658 280 671 317 q 614 207 646 243 l 433 0 l 111 0 l 111 454 m 511 288 q 553 304 539 288 q 568 349 568 321 q 553 393 568 376 q 511 410 539 410 q 469 393 483 410 q 454 349 454 376 q 469 304 454 321 q 511 288 483 288 z "},"ต":{"ha":1050,"x_min":111,"x_max":939,"o":"m 111 563 q 185 727 111 668 q 386 786 260 786 l 525 675 l 664 786 q 865 727 790 786 q 939 563 939 668 l 939 0 l 733 0 l 733 535 q 717 597 733 575 q 672 628 700 619 l 525 514 l 378 628 q 333 597 350 619 q 317 535 317 575 l 317 125 l 389 125 l 417 157 l 457 192 q 390 244 415 208 q 365 328 365 279 q 410 435 365 394 q 525 476 456 476 q 640 435 594 476 q 685 328 685 394 q 672 259 685 296 q 628 186 660 222 l 465 0 l 111 0 l 111 563 m 525 267 q 567 283 553 267 q 582 328 582 300 q 567 372 582 356 q 525 389 553 389 q 483 372 497 389 q 468 328 468 356 q 483 283 468 300 q 525 267 497 267 z "},"ฒ":{"ha":1449,"x_min":111,"x_max":1332,"o":"m 782 -17 q 650 30 701 -17 q 599 156 599 76 l 599 172 l 460 0 l 111 0 l 111 563 q 185 727 111 668 q 386 786 260 786 l 525 675 l 664 786 q 865 727 790 786 q 939 563 939 668 l 939 260 l 1118 163 l 1126 163 l 1126 769 l 1332 769 l 1332 0 l 1136 0 l 957 99 q 893 14 939 44 q 782 -17 847 -17 m 317 125 l 383 125 l 426 178 l 460 211 q 391 263 417 226 q 365 349 365 299 q 410 456 365 415 q 525 497 456 497 q 640 456 594 497 q 685 349 685 415 q 678 301 685 329 q 740 324 706 317 q 733 376 733 349 l 733 535 q 717 597 733 575 q 672 628 700 619 l 525 514 l 378 628 q 333 597 350 619 q 317 535 317 575 l 317 125 m 782 82 q 833 100 815 82 q 851 144 851 118 l 851 167 q 833 211 851 193 q 782 229 815 229 q 731 211 749 229 q 713 167 713 193 l 713 144 q 731 100 713 118 q 782 82 749 82 m 525 288 q 567 304 553 288 q 582 349 582 321 q 567 393 582 376 q 525 410 553 410 q 483 393 497 410 q 468 349 468 376 q 483 304 468 321 q 525 288 497 288 z "},"ท":{"ha":1014,"x_min":33,"x_max":900,"o":"m 194 454 q 78 504 124 461 q 33 619 33 547 q 47 689 33 658 q 86 741 61 719 q 144 774 111 763 q 217 786 178 786 q 348 740 296 786 q 400 611 400 693 l 400 572 l 407 572 q 512 726 440 667 q 690 786 583 786 q 851 717 801 786 q 900 510 900 649 l 900 0 l 696 0 l 696 486 q 669 576 696 553 q 607 600 642 600 q 539 585 575 600 q 472 542 503 571 q 420 474 440 514 q 400 382 400 433 l 400 0 l 194 0 l 194 454 m 211 551 q 257 569 239 551 q 275 619 275 588 q 257 669 275 651 q 211 688 239 688 q 165 669 183 688 q 147 619 147 651 q 165 569 147 588 q 211 551 183 551 z "},"ธ":{"ha":858,"x_min":90,"x_max":799,"o":"m 444 -17 q 273 4 339 -17 q 170 60 207 25 q 120 140 133 94 q 107 235 107 185 l 107 317 l 313 317 l 313 219 q 316 183 313 200 q 329 155 319 167 q 357 136 339 143 q 403 129 375 129 l 486 129 q 559 154 542 129 q 576 219 576 179 l 576 272 q 572 313 576 294 q 553 344 567 331 q 515 365 539 357 q 451 376 490 374 l 90 406 l 90 517 q 186 716 90 646 q 463 786 282 786 q 659 757 578 786 q 799 679 740 728 l 701 547 q 599 606 665 582 q 449 629 533 629 q 319 605 365 629 q 272 540 272 581 l 478 524 q 599 507 543 518 q 695 470 654 496 q 759 401 736 444 q 782 288 782 357 l 782 235 q 769 140 782 185 q 719 60 756 94 q 616 4 682 25 q 444 -17 550 -17 z "},"บ":{"ha":986,"x_min":39,"x_max":872,"o":"m 200 146 l 200 454 q 84 504 129 461 q 39 619 39 547 q 91 742 39 697 q 222 786 143 786 q 353 740 301 786 q 406 611 406 693 l 406 146 l 540 146 q 633 176 600 146 q 667 258 667 206 l 667 769 l 872 769 l 872 264 q 791 69 872 138 q 563 0 710 0 l 92 0 l 92 146 l 200 146 m 217 551 q 263 569 244 551 q 281 619 281 588 q 263 669 281 651 q 217 688 244 688 q 171 669 189 688 q 153 619 153 651 q 171 569 153 588 q 217 551 189 551 z "},"ป":{"ha":986,"x_min":39,"x_max":872,"o":"m 200 146 l 200 454 q 84 504 129 461 q 39 619 39 547 q 91 742 39 697 q 222 786 143 786 q 353 740 301 786 q 406 611 406 693 l 406 146 l 540 146 q 633 176 600 146 q 667 258 667 206 l 667 1038 l 872 1038 l 872 264 q 791 69 872 138 q 563 0 710 0 l 92 0 l 92 146 l 200 146 m 217 551 q 263 569 244 551 q 281 619 281 588 q 263 669 281 651 q 217 688 244 688 q 171 669 189 688 q 153 619 153 651 q 171 569 153 588 q 217 551 189 551 z "},"ษ":{"ha":1050,"x_min":39,"x_max":974,"o":"m 200 146 l 200 454 q 84 504 129 461 q 39 619 39 547 q 91 742 39 697 q 222 786 143 786 q 353 740 301 786 q 406 611 406 693 l 406 146 l 593 146 q 686 176 653 146 q 719 258 719 206 l 719 315 l 611 315 q 466 351 515 315 q 417 457 417 388 q 456 560 417 522 q 563 599 496 599 q 669 560 629 599 q 708 457 708 522 q 700 411 708 432 q 719 421 706 415 l 719 769 l 925 769 l 925 436 l 974 436 l 974 315 l 925 315 l 925 264 q 844 69 925 138 q 615 0 763 0 l 92 0 l 92 146 l 200 146 m 217 551 q 263 569 244 551 q 281 619 281 588 q 263 669 281 651 q 217 688 244 688 q 171 669 189 688 q 153 619 153 651 q 171 569 153 588 q 217 551 189 551 m 563 399 q 602 414 588 399 q 617 457 617 429 q 602 500 617 485 q 563 515 588 515 q 523 500 538 515 q 508 457 508 485 q 523 414 508 429 q 563 399 538 399 z "},"ม":{"ha":963,"x_min":60,"x_max":846,"o":"m 243 -17 q 111 30 163 -17 q 60 156 60 76 q 108 278 60 232 q 235 328 157 325 q 229 376 229 346 l 229 454 q 113 504 158 461 q 68 619 68 547 q 120 742 68 697 q 251 786 172 786 q 383 740 331 786 q 435 611 435 694 l 435 260 l 632 163 l 640 163 l 640 769 l 846 769 l 846 0 l 650 0 l 422 115 q 362 19 410 54 q 243 -17 314 -17 m 243 82 q 294 100 276 82 q 313 144 313 118 l 313 167 q 294 211 313 193 q 243 229 276 229 q 192 211 210 229 q 174 167 174 193 l 174 144 q 192 100 174 118 q 243 82 210 82 m 246 551 q 292 569 274 551 q 310 619 310 588 q 292 669 310 651 q 246 688 274 688 q 200 669 218 688 q 182 619 182 651 q 200 569 182 588 q 246 551 218 551 z "},"น":{"ha":996,"x_min":33,"x_max":957,"o":"m 774 -17 q 660 15 707 -17 q 597 101 614 46 l 392 0 l 194 0 l 194 454 q 78 504 124 461 q 33 619 33 547 q 85 742 33 697 q 217 786 138 786 q 348 740 296 786 q 400 611 400 693 l 400 160 l 408 160 l 632 269 l 632 769 l 838 769 l 838 382 q 835 353 838 368 q 824 322 833 338 q 920 265 883 308 q 957 156 957 221 q 906 30 957 76 q 774 -17 854 -17 m 774 82 q 825 100 807 82 q 843 144 843 118 l 843 167 q 825 211 843 193 q 774 229 807 229 q 722 211 740 229 q 704 167 704 193 l 704 144 q 722 100 704 118 q 774 82 740 82 m 211 551 q 257 569 239 551 q 275 619 275 588 q 257 669 275 651 q 211 688 239 688 q 165 669 183 688 q 147 619 147 651 q 165 569 147 588 q 211 551 183 551 z "},"ผ":{"ha":1053,"x_min":114,"x_max":939,"o":"m 338 -17 q 173 40 232 -17 q 114 192 114 96 l 114 611 q 166 740 114 693 q 297 786 218 786 q 428 742 376 786 q 481 619 481 697 q 435 504 481 547 q 319 454 390 461 l 319 213 q 336 165 319 182 q 379 147 353 147 q 422 165 406 147 q 439 213 439 182 l 439 374 l 614 374 l 614 213 q 631 165 614 182 q 674 147 647 147 q 717 165 700 147 q 733 213 733 182 l 733 769 l 939 769 l 939 192 q 880 40 939 96 q 715 -17 821 -17 q 594 20 644 -17 q 532 132 543 57 l 522 132 q 459 20 510 57 q 338 -17 408 -17 m 303 551 q 349 569 331 551 q 367 619 367 588 q 349 669 367 651 q 303 688 331 688 q 257 669 275 688 q 239 619 239 651 q 257 569 239 588 q 303 551 275 551 z "},"ฝ":{"ha":1053,"x_min":114,"x_max":939,"o":"m 338 -17 q 173 40 232 -17 q 114 192 114 96 l 114 611 q 166 740 114 693 q 297 786 218 786 q 428 742 376 786 q 481 619 481 697 q 435 504 481 547 q 319 454 390 461 l 319 213 q 336 165 319 182 q 379 147 353 147 q 422 165 406 147 q 439 213 439 182 l 439 374 l 614 374 l 614 213 q 631 165 614 182 q 674 147 647 147 q 717 165 700 147 q 733 213 733 182 l 733 1038 l 939 1038 l 939 192 q 880 40 939 96 q 715 -17 821 -17 q 594 20 644 -17 q 532 132 543 57 l 522 132 q 459 20 510 57 q 338 -17 408 -17 m 303 551 q 349 569 331 551 q 367 619 367 588 q 349 669 367 651 q 303 688 331 688 q 257 669 275 688 q 239 619 239 651 q 257 569 239 588 q 303 551 275 551 z "},"พ":{"ha":1100,"x_min":33,"x_max":983,"o":"m 194 454 q 78 504 124 461 q 33 619 33 547 q 85 742 33 697 q 217 786 138 786 q 348 740 296 786 q 400 611 400 693 l 400 379 l 393 168 l 400 168 l 535 747 l 643 747 l 778 168 l 785 168 l 778 379 l 778 769 l 983 769 l 983 92 q 963 26 983 51 q 897 0 942 0 l 721 0 l 592 557 l 586 557 l 457 0 l 194 0 l 194 454 m 211 551 q 257 569 239 551 q 275 619 275 588 q 257 669 275 651 q 211 688 239 688 q 165 669 183 688 q 147 619 147 651 q 165 569 147 588 q 211 551 183 551 z "},"ฟ":{"ha":1100,"x_min":33,"x_max":983,"o":"m 194 454 q 78 504 124 461 q 33 619 33 547 q 85 742 33 697 q 217 786 138 786 q 348 740 296 786 q 400 611 400 693 l 400 379 l 393 168 l 400 168 l 535 747 l 643 747 l 778 168 l 785 168 l 778 379 l 778 1038 l 983 1038 l 983 92 q 963 26 983 51 q 897 0 942 0 l 721 0 l 592 557 l 586 557 l 457 0 l 194 0 l 194 454 m 211 551 q 257 569 239 551 q 275 619 275 588 q 257 669 275 651 q 211 688 239 688 q 165 669 183 688 q 147 619 147 651 q 165 569 147 588 q 211 551 183 551 z "},"ย":{"ha":893,"x_min":90,"x_max":782,"o":"m 394 319 q 322 293 344 319 q 300 235 300 267 q 331 167 300 192 q 410 143 361 143 l 456 143 q 542 172 508 143 q 576 254 576 201 l 576 769 l 782 769 l 782 269 q 692 56 782 129 q 432 -17 601 -17 q 294 -3 356 -17 q 190 35 233 10 q 122 98 146 61 q 99 183 99 135 q 135 281 99 249 q 221 326 171 314 l 221 332 q 120 398 150 351 q 90 508 90 444 l 90 585 q 143 730 90 674 q 290 786 196 786 q 406 746 361 786 q 450 636 450 706 q 408 537 450 574 q 306 500 365 500 q 284 501 294 500 q 263 507 274 503 q 278 466 263 479 q 329 453 293 453 l 436 453 l 436 319 l 394 319 m 292 576 q 333 594 317 576 q 350 639 350 611 q 333 684 350 667 q 292 701 317 701 q 250 684 267 701 q 233 639 233 667 q 250 594 233 611 q 292 576 267 576 z "},"ร":{"ha":783,"x_min":72,"x_max":714,"o":"m 472 -17 q 398 -5 432 -17 q 339 28 364 7 q 300 81 314 50 q 286 151 286 113 q 333 269 286 225 q 454 318 381 313 l 454 325 q 442 358 454 347 q 397 372 431 369 l 72 399 l 72 481 q 97 608 72 551 q 165 703 121 664 q 269 765 208 743 q 404 786 331 786 q 585 756 514 786 q 714 667 656 726 l 621 533 q 530 610 585 582 q 417 639 475 639 q 307 608 344 639 q 265 524 269 576 l 433 511 q 526 499 485 507 q 597 469 568 490 q 642 413 626 449 q 658 318 658 376 l 658 151 q 644 81 658 113 q 604 28 629 50 q 545 -5 579 7 q 472 -17 511 -17 m 464 221 q 416 202 435 221 q 397 151 397 183 q 416 101 397 119 q 464 82 435 82 q 512 101 493 82 q 531 151 531 119 q 512 202 531 183 q 464 221 493 221 z "},"ล":{"ha":892,"x_min":47,"x_max":781,"o":"m 294 -17 q 142 40 199 -17 q 86 207 86 97 q 159 397 86 335 q 350 460 232 460 l 575 460 l 575 475 q 535 589 575 549 q 403 629 494 629 q 324 618 358 629 q 262 589 289 607 q 215 549 235 571 q 179 506 194 528 l 47 619 q 108 689 74 658 q 188 741 143 719 q 291 774 233 763 q 422 786 349 786 q 690 708 599 786 q 781 482 781 631 l 781 0 l 575 0 l 575 343 l 381 343 q 289 322 321 343 q 251 265 257 300 q 313 276 281 276 q 415 238 372 276 q 457 133 457 200 q 413 24 457 64 q 294 -17 368 -17 m 299 68 q 340 85 324 68 q 357 131 357 103 q 340 176 357 158 q 299 193 324 193 q 257 176 274 193 q 240 131 240 158 q 257 85 240 103 q 299 68 274 68 z "},"ส":{"ha":892,"x_min":47,"x_max":785,"o":"m 575 343 l 381 343 q 289 322 321 343 q 251 265 257 300 q 313 276 281 276 q 415 238 372 276 q 457 133 457 200 q 413 24 457 64 q 294 -17 368 -17 q 142 40 199 -17 q 86 207 86 97 q 159 397 86 335 q 350 460 232 460 l 575 460 l 575 475 q 535 589 575 549 q 403 629 494 629 q 324 618 358 629 q 262 589 289 607 q 215 549 235 571 q 179 506 194 528 l 47 619 q 108 689 74 658 q 188 741 143 719 q 291 774 233 763 q 422 786 349 786 q 581 765 511 786 l 581 863 l 785 863 l 785 814 q 768 733 785 768 q 721 674 751 697 q 781 482 781 599 l 781 0 l 575 0 l 575 343 m 299 68 q 340 85 324 68 q 357 131 357 103 q 340 176 357 158 q 299 193 324 193 q 257 176 274 193 q 240 131 240 158 q 257 85 240 103 q 299 68 274 68 z "},"ว":{"ha":739,"x_min":17,"x_max":628,"o":"m 444 -17 q 313 28 365 -17 q 261 150 261 72 q 306 265 261 221 q 422 315 351 308 l 422 513 q 394 598 422 567 q 299 629 365 629 q 200 603 238 629 q 139 542 163 576 l 17 647 q 130 749 61 713 q 314 786 199 786 q 549 718 469 786 q 628 519 628 650 l 628 158 q 576 30 628 76 q 444 -17 524 -17 m 439 82 q 485 100 467 82 q 503 150 503 118 q 485 200 503 182 q 439 218 467 218 q 393 200 411 218 q 375 150 375 182 q 393 100 375 118 q 439 82 411 82 z "},"อ":{"ha":901,"x_min":56,"x_max":801,"o":"m 464 -17 q 213 44 300 -17 q 126 232 126 106 l 126 333 q 178 477 126 422 q 317 532 229 532 q 445 488 394 532 q 496 365 496 443 q 450 248 496 292 q 333 199 404 204 q 421 140 344 140 l 507 140 q 574 161 551 140 q 596 218 596 182 l 596 457 q 544 583 596 538 q 404 629 493 629 q 322 619 357 629 q 259 594 286 610 q 213 558 232 578 q 178 519 193 539 l 56 632 q 111 691 78 663 q 190 740 144 719 q 296 774 236 761 q 431 786 356 786 q 707 701 613 786 q 801 463 801 617 l 801 232 q 715 44 801 106 q 464 -17 628 -17 m 319 297 q 366 315 347 297 q 385 365 385 333 q 366 415 385 397 q 319 433 347 433 q 273 415 292 433 q 254 365 254 397 q 273 315 254 333 q 319 297 292 297 z "},"ฮ":{"ha":901,"x_min":56,"x_max":806,"o":"m 806 814 q 736 669 806 717 q 801 463 801 589 l 801 232 q 715 44 801 106 q 464 -17 628 -17 q 213 44 300 -17 q 126 232 126 106 l 126 333 q 178 477 126 422 q 317 532 229 532 q 445 488 394 532 q 496 365 496 443 q 450 248 496 292 q 333 199 404 204 q 421 140 344 140 l 507 140 q 574 161 551 140 q 596 218 596 182 l 596 457 q 544 583 596 538 q 404 629 493 629 q 322 619 357 629 q 259 594 286 610 q 213 558 232 578 q 178 519 193 539 l 56 632 q 111 691 78 663 q 190 740 144 719 q 296 774 236 761 q 431 786 356 786 q 601 760 525 786 l 601 863 l 806 863 l 806 814 m 319 297 q 366 315 347 297 q 385 365 385 333 q 366 415 385 397 q 319 433 347 433 q 273 415 292 433 q 254 365 254 397 q 273 315 254 333 q 319 297 292 297 z "},"ห":{"ha":1032,"x_min":33,"x_max":935,"o":"m 194 0 l 194 454 q 78 504 124 461 q 33 619 33 547 q 85 742 33 697 q 217 786 138 786 q 348 740 296 786 q 400 611 400 693 l 400 421 l 596 517 q 568 614 568 557 q 619 740 568 693 q 751 786 671 786 q 883 740 832 786 q 935 614 935 693 q 909 519 935 560 q 840 460 883 479 q 865 394 865 435 l 865 0 l 660 0 l 660 394 l 650 394 l 400 271 l 400 0 l 194 0 m 751 540 q 803 558 785 540 q 821 603 821 576 l 821 625 q 803 669 821 651 q 751 688 785 688 q 700 669 718 688 q 682 625 682 651 l 682 603 q 700 558 682 576 q 751 540 718 540 m 211 551 q 257 569 239 551 q 275 619 275 588 q 257 669 275 651 q 211 688 239 688 q 165 669 183 688 q 147 619 147 651 q 165 569 147 588 q 211 551 183 551 z "},"ฬ":{"ha":1097,"x_min":33,"x_max":993,"o":"m 194 454 q 78 504 124 461 q 33 619 33 547 q 85 742 33 697 q 217 786 138 786 q 348 740 296 786 q 400 611 400 693 l 400 372 l 399 161 l 406 161 l 539 531 l 636 531 l 769 161 l 776 161 l 775 372 l 775 651 q 756 744 775 718 q 688 769 738 769 l 607 769 l 607 903 l 688 903 q 762 919 731 903 q 793 985 793 936 l 793 1072 l 993 1072 l 993 1017 q 958 923 993 964 q 849 872 924 882 l 849 863 q 919 834 893 854 q 959 784 946 814 q 976 717 972 754 q 981 635 981 679 l 981 92 q 960 26 981 51 q 894 0 939 0 l 717 0 l 590 349 l 585 349 l 458 0 l 194 0 l 194 454 m 211 551 q 257 569 239 551 q 275 619 275 588 q 257 669 275 651 q 211 688 239 688 q 165 669 183 688 q 147 619 147 651 q 165 569 147 588 q 211 551 183 551 z "},"า":{"ha":731,"x_min":17,"x_max":619,"o":"m 414 0 l 414 514 q 385 598 414 567 q 294 629 357 629 q 199 603 235 629 q 139 542 163 576 l 17 647 q 128 749 61 713 q 310 786 196 786 q 541 718 463 786 q 619 519 619 650 l 619 0 l 414 0 z "},"ๅ":{"ha":731,"x_min":17,"x_max":619,"o":"m 414 -278 l 414 514 q 385 598 414 567 q 294 629 357 629 q 199 603 235 629 q 139 542 163 576 l 17 647 q 128 749 61 713 q 310 786 196 786 q 541 718 463 786 q 619 519 619 650 l 619 -278 l 414 -278 z "},"ำ":{"ha":731,"x_min":-411,"x_max":619,"o":"m 414 0 l 414 514 q 385 598 414 567 q 294 629 357 629 q 199 603 235 629 q 139 542 163 576 l 17 647 q 128 749 61 713 q 310 786 196 786 q 541 718 463 786 q 619 519 619 650 l 619 0 l 414 0 m -228 907 q -360 952 -308 907 q -411 1079 -411 997 q -360 1206 -411 1161 q -228 1251 -308 1251 q -96 1206 -147 1251 q -44 1079 -44 1161 q -96 952 -44 997 q -228 907 -147 907 m -228 1011 q -182 1028 -199 1011 q -165 1068 -165 1044 l -165 1090 q -182 1131 -165 1114 q -228 1147 -199 1147 q -274 1131 -257 1147 q -290 1090 -290 1114 l -290 1068 q -274 1028 -290 1044 q -228 1011 -257 1011 z "},"เ":{"ha":515,"x_min":111,"x_max":478,"o":"m 294 -17 q 163 30 215 -17 q 111 158 111 76 l 111 769 l 317 769 l 317 315 q 433 265 388 308 q 478 150 478 221 q 426 28 478 72 q 294 -17 374 -17 m 300 82 q 346 100 328 82 q 364 150 364 118 q 346 200 364 182 q 300 218 328 218 q 254 200 272 218 q 236 150 236 182 q 254 100 236 118 q 300 82 272 82 z "},"แ":{"ha":947,"x_min":111,"x_max":910,"o":"m 294 -17 q 163 30 215 -17 q 111 158 111 76 l 111 769 l 317 769 l 317 315 q 433 265 388 308 q 478 150 478 221 q 426 28 478 72 q 294 -17 374 -17 m 300 82 q 346 100 328 82 q 364 150 364 118 q 346 200 364 182 q 300 218 328 218 q 254 200 272 218 q 236 150 236 182 q 254 100 236 118 q 300 82 272 82 m 726 -17 q 595 30 647 -17 q 543 158 543 76 l 543 769 l 749 769 l 749 315 q 865 265 819 308 q 910 150 910 221 q 858 28 910 72 q 726 -17 806 -17 m 732 82 q 778 100 760 82 q 796 150 796 118 q 778 200 796 182 q 732 218 760 218 q 686 200 704 218 q 668 150 668 182 q 686 100 668 118 q 732 82 704 82 z "},"โ":{"ha":571,"x_min":-35,"x_max":585,"o":"m 350 -17 q 219 30 271 -17 q 167 158 167 76 l 167 829 l -35 906 l -35 964 q -12 1092 -35 1035 q 53 1190 11 1150 q 156 1252 96 1231 q 289 1274 215 1274 q 465 1240 393 1274 q 585 1146 536 1206 l 478 1025 q 406 1088 454 1061 q 289 1114 357 1114 q 188 1083 229 1114 q 147 986 147 1053 l 147 983 l 286 933 q 328 913 311 924 q 354 889 344 903 q 368 857 364 875 q 372 814 372 839 l 372 315 q 488 265 443 308 q 533 150 533 221 q 481 28 533 72 q 350 -17 429 -17 m 356 82 q 401 100 383 82 q 419 150 419 118 q 401 200 419 182 q 356 218 383 218 q 310 200 328 218 q 292 150 292 182 q 310 100 292 118 q 356 82 328 82 z "},"ใ":{"ha":569,"x_min":-62,"x_max":544,"o":"m 350 -17 q 219 30 271 -17 q 167 158 167 76 l 167 694 q 167 746 167 724 q 174 787 168 768 q 190 822 179 806 q 221 853 200 838 l 272 892 q 332 951 315 924 q 349 1015 349 978 q 315 1086 349 1060 q 228 1113 282 1113 q 139 1078 172 1113 q 86 981 106 1043 l -62 1064 q -25 1142 -49 1104 q 35 1210 -1 1181 q 123 1256 72 1239 q 240 1274 174 1274 q 360 1258 304 1274 q 457 1213 417 1243 q 521 1141 497 1183 q 544 1044 544 1099 q 514 924 544 975 q 422 825 483 874 l 372 785 l 372 315 q 488 265 443 308 q 533 150 533 221 q 481 28 533 72 q 350 -17 429 -17 m 356 82 q 401 100 383 82 q 419 150 419 118 q 401 200 419 182 q 356 218 383 218 q 310 200 328 218 q 292 150 292 182 q 310 100 292 118 q 356 82 328 82 z "},"ไ":{"ha":571,"x_min":-126,"x_max":533,"o":"m 350 -17 q 219 30 271 -17 q 167 158 167 76 l 167 796 l 215 1100 l 201 1100 l 118 875 l 3 875 l -126 1257 l 33 1257 l 68 1142 l 89 1040 l 96 1040 l 122 1142 l 165 1257 l 372 1257 l 372 315 q 488 265 443 308 q 533 150 533 221 q 481 28 533 72 q 350 -17 429 -17 m 356 82 q 401 100 383 82 q 419 150 419 118 q 401 200 419 182 q 356 218 383 218 q 310 200 328 218 q 292 150 292 182 q 310 100 292 118 q 356 82 328 82 z "},"ะ":{"ha":792,"x_min":60,"x_max":721,"o":"m 363 394 q 138 447 215 394 q 60 603 60 500 q 108 730 60 686 q 233 774 157 774 q 350 733 308 774 q 392 631 392 693 q 374 565 392 590 q 338 532 357 540 l 338 529 l 385 529 q 490 576 460 529 q 519 714 519 622 l 519 740 l 721 740 l 721 714 q 631 470 721 546 q 363 394 542 394 m 363 -4 q 138 49 215 -4 q 60 204 60 101 q 108 331 60 288 q 233 375 157 375 q 350 335 308 375 q 392 232 392 294 q 374 167 392 192 q 338 133 357 142 l 338 131 l 385 131 q 490 177 460 131 q 519 315 519 224 l 519 342 l 721 342 l 721 315 q 631 72 721 147 q 363 -4 542 -4 m 232 547 q 275 564 260 547 q 290 611 290 581 q 275 658 290 642 q 232 675 260 675 q 189 658 204 675 q 174 611 174 642 q 189 564 174 581 q 232 547 204 547 m 232 149 q 275 165 260 149 q 290 213 290 182 q 275 260 290 243 q 232 276 260 276 q 189 260 204 276 q 174 213 174 243 q 189 165 174 182 q 232 149 204 149 z "},"๐":{"ha":886,"x_min":76,"x_max":813,"o":"m 444 -17 q 292 9 360 -17 q 176 82 224 35 q 102 197 128 129 q 76 351 76 265 q 102 505 76 436 q 176 621 128 574 q 292 694 224 668 q 444 719 360 719 q 597 694 529 719 q 713 621 665 668 q 787 505 761 574 q 813 351 813 436 q 787 197 813 265 q 713 82 761 129 q 597 9 665 35 q 444 -17 529 -17 m 444 129 q 557 167 515 129 q 599 274 599 204 l 599 429 q 557 536 599 499 q 444 574 515 574 q 332 536 374 574 q 290 429 290 499 l 290 274 q 332 167 290 204 q 444 129 374 129 z "},"๑":{"ha":901,"x_min":60,"x_max":828,"o":"m 433 719 q 600 693 526 719 q 724 617 674 667 q 801 499 775 568 q 828 342 828 429 q 793 144 828 228 q 692 3 758 60 q 531 -85 626 -54 q 313 -124 435 -117 l 289 26 q 440 50 378 31 q 540 101 501 69 q 597 178 579 133 q 614 281 614 224 l 614 403 q 563 527 614 482 q 422 572 513 572 q 353 562 385 572 q 297 531 321 551 q 258 481 272 511 q 244 411 244 450 l 244 349 q 245 327 244 338 q 247 307 246 317 l 250 307 q 287 386 256 356 q 376 417 318 417 q 476 379 439 417 q 513 285 513 342 q 502 231 513 257 q 469 183 492 204 q 411 150 447 163 q 324 138 375 138 q 219 155 267 138 q 135 205 171 172 q 80 284 100 238 q 60 389 60 331 q 87 526 60 465 q 163 631 114 588 q 281 697 213 674 q 433 719 350 719 m 369 225 q 410 240 394 225 q 426 283 426 256 q 410 326 426 311 q 369 342 394 342 q 328 326 344 342 q 313 283 313 311 q 328 240 313 256 q 369 225 344 225 z "},"๒":{"ha":1138,"x_min":115,"x_max":1046,"o":"m 307 842 l 307 289 q 355 168 307 207 q 507 129 403 129 l 654 129 q 806 168 758 129 q 854 289 854 207 l 854 522 q 811 574 854 574 q 778 555 790 574 q 760 492 765 536 l 657 492 q 639 555 651 536 q 606 574 626 574 q 563 522 563 574 l 563 478 l 576 478 q 672 445 635 478 q 708 356 708 413 q 672 266 708 299 q 576 233 635 233 q 440 282 489 233 q 390 418 390 331 l 390 533 q 433 669 390 619 q 554 719 475 719 q 656 689 617 719 q 703 607 696 658 l 714 607 q 767 689 721 658 q 876 719 813 719 q 1001 669 956 719 q 1046 533 1046 619 l 1046 288 q 1020 149 1046 207 q 938 55 994 92 q 794 1 882 18 q 581 -17 706 -17 q 367 1 456 -17 q 223 55 279 18 q 141 149 167 92 q 115 288 115 207 l 115 842 l 307 842 m 576 303 q 612 317 599 303 q 625 356 625 332 q 612 394 625 379 q 576 408 599 408 q 541 394 554 408 q 528 356 528 379 q 541 317 528 332 q 576 303 554 303 z "},"๓":{"ha":1093,"x_min":92,"x_max":978,"o":"m 321 -17 q 155 59 218 -17 q 92 292 92 135 l 92 408 q 153 644 92 568 q 332 719 215 719 q 421 706 385 719 q 481 670 457 692 q 516 623 504 649 q 533 575 528 597 l 544 575 q 563 623 550 597 q 601 670 576 649 q 661 706 625 692 q 750 719 697 719 q 917 658 857 719 q 978 478 978 596 l 978 0 l 772 0 l 772 485 q 699 574 772 574 q 625 485 625 574 l 625 313 l 453 313 l 453 485 q 435 550 453 526 q 379 574 417 574 q 297 444 297 574 l 297 314 q 317 316 307 315 q 338 317 326 317 q 401 305 371 317 q 455 272 432 293 q 491 219 478 250 q 504 150 504 189 q 453 28 504 74 q 321 -17 401 -17 m 326 82 q 372 100 354 82 q 390 150 390 118 q 372 200 390 182 q 326 218 354 218 q 281 200 299 218 q 263 150 263 182 q 281 100 263 118 q 326 82 299 82 z "},"๔":{"ha":858,"x_min":76,"x_max":825,"o":"m 640 508 q 753 470 710 508 q 796 369 796 432 q 765 281 796 317 q 681 235 733 246 q 739 175 701 201 q 825 146 776 149 l 825 0 l 485 0 q 181 87 285 0 q 76 340 76 174 q 103 478 76 424 q 173 566 131 532 q 265 619 215 600 q 361 651 315 639 l 586 717 l 607 842 l 790 842 l 778 742 q 767 689 774 711 q 745 649 760 667 q 708 619 731 632 q 649 596 685 606 l 447 538 q 383 515 413 528 q 333 483 354 503 q 301 436 313 464 q 290 369 290 408 l 290 297 q 299 242 290 269 q 329 194 307 215 q 389 159 351 172 q 485 146 426 146 l 636 146 l 636 153 q 581 176 608 158 q 533 220 554 194 q 498 278 511 246 q 485 346 485 310 l 485 364 q 528 469 485 429 q 640 508 571 508 m 643 308 q 683 324 668 308 q 699 365 699 339 q 683 407 699 392 q 643 422 668 422 q 603 407 618 422 q 588 365 588 392 q 603 324 588 339 q 643 308 618 308 z "},"๕":{"ha":858,"x_min":76,"x_max":825,"o":"m 640 508 q 753 470 710 508 q 796 369 796 432 q 765 281 796 317 q 681 233 733 244 q 739 174 701 200 q 825 146 776 149 l 825 0 l 485 0 q 181 87 285 0 q 76 340 76 174 q 90 442 76 399 q 128 519 104 486 q 183 574 151 551 q 247 611 214 596 q 182 721 182 646 q 228 838 182 796 q 354 881 275 881 q 477 840 432 881 q 522 742 522 800 q 515 697 522 721 l 586 717 l 607 842 l 790 842 l 778 742 q 767 689 774 711 q 745 649 760 667 q 708 619 731 632 q 649 596 685 606 l 447 538 q 383 515 413 528 q 333 483 354 503 q 301 436 313 464 q 290 369 290 408 l 290 297 q 299 242 290 269 q 329 194 307 215 q 389 159 351 172 q 485 146 426 146 l 636 146 l 636 153 q 581 176 608 158 q 533 220 554 194 q 498 278 511 246 q 485 346 485 310 l 485 364 q 528 469 485 429 q 640 508 571 508 m 354 653 q 400 668 383 653 q 417 711 417 683 l 417 724 q 400 767 417 751 q 354 782 383 782 q 308 767 325 782 q 292 724 292 751 l 292 711 q 308 668 292 683 q 354 653 325 653 m 643 308 q 683 324 668 308 q 699 365 699 339 q 683 407 699 392 q 643 422 668 422 q 603 407 618 422 q 588 365 588 392 q 603 324 588 339 q 643 308 618 308 z "},"๖":{"ha":903,"x_min":26,"x_max":829,"o":"m 426 -17 q 307 -1 365 -17 q 202 45 249 14 q 127 124 156 76 q 99 235 99 171 q 145 372 99 324 q 268 419 192 419 q 377 381 335 419 q 419 285 419 343 q 381 191 419 228 q 285 154 343 154 l 285 149 q 347 135 313 140 q 425 131 382 131 q 567 173 519 131 q 615 286 615 215 l 615 424 q 572 534 615 494 q 458 574 528 574 q 332 540 379 574 q 267 450 285 506 l 97 450 l 26 842 l 217 842 l 256 557 l 267 557 q 347 675 286 631 q 508 719 408 719 q 642 694 582 719 q 743 623 701 669 q 807 508 785 576 q 829 354 829 440 q 801 199 829 268 q 719 83 772 131 q 592 9 667 35 q 426 -17 518 -17 m 269 217 q 310 232 294 217 q 326 275 326 247 q 310 318 326 303 q 269 333 294 333 q 228 318 244 333 q 213 275 213 303 q 228 232 213 247 q 269 217 244 217 z "},"๗":{"ha":1267,"x_min":92,"x_max":1151,"o":"m 321 -17 q 155 59 218 -17 q 92 292 92 135 l 92 404 q 142 642 92 565 q 304 719 193 719 q 372 710 343 719 q 422 683 401 700 q 453 646 442 667 q 469 603 465 625 l 481 603 q 530 684 490 649 q 643 719 569 719 q 785 660 736 719 q 833 489 833 601 l 833 146 l 844 146 q 946 269 946 146 l 946 842 l 1151 842 l 1151 257 q 1074 67 1151 135 q 844 0 996 0 l 632 0 l 632 513 q 619 559 632 546 q 588 572 606 572 q 549 550 564 572 q 535 461 535 528 l 407 461 q 393 550 407 528 q 357 572 379 572 q 328 564 340 572 q 310 535 317 556 q 300 479 303 514 q 297 392 297 444 l 297 314 q 317 316 307 315 q 338 317 326 317 q 401 305 371 317 q 455 272 432 293 q 491 219 478 250 q 504 150 504 189 q 453 28 504 74 q 321 -17 401 -17 m 326 82 q 372 100 354 82 q 390 150 390 118 q 372 200 390 182 q 326 218 354 218 q 281 200 299 218 q 263 150 263 182 q 281 100 263 118 q 326 82 299 82 z "},"๘":{"ha":1006,"x_min":76,"x_max":911,"o":"m 313 -17 q 139 68 201 -17 q 76 314 76 153 q 103 462 76 404 q 171 555 131 519 q 260 608 211 590 q 351 636 308 625 l 650 707 l 672 842 l 856 842 l 843 742 q 835 692 840 715 q 815 649 829 668 q 778 614 801 629 q 714 589 754 599 l 439 524 q 329 472 368 507 q 290 357 290 436 l 290 264 q 306 166 290 203 q 367 129 322 129 q 420 154 399 129 q 443 242 442 179 l 572 242 q 599 160 575 192 q 660 129 624 129 q 715 144 700 129 q 731 192 731 160 l 731 229 l 715 229 q 606 266 649 229 q 563 365 563 303 q 608 467 563 429 q 724 506 654 506 q 863 454 814 506 q 911 315 911 403 l 911 207 q 851 41 911 99 q 682 -17 790 -17 q 560 19 601 -17 q 510 100 518 54 l 499 100 q 442 18 488 53 q 313 -17 396 -17 m 715 306 q 756 321 740 306 q 771 363 771 336 q 756 404 771 389 q 715 419 740 419 q 675 404 690 419 q 660 363 660 389 q 675 321 660 336 q 715 306 690 306 z "},"๙":{"ha":1043,"x_min":92,"x_max":1069,"o":"m 321 -17 q 155 59 218 -17 q 92 292 92 135 l 92 404 q 162 642 92 565 q 363 719 232 719 q 514 672 454 719 q 611 514 574 625 l 618 517 q 606 604 604 567 q 623 667 608 642 q 663 706 638 693 q 721 719 688 719 q 815 679 788 719 q 844 571 842 639 l 851 571 l 879 842 l 1069 842 l 1001 450 l 833 450 q 813 538 833 501 q 750 574 793 574 q 714 563 731 574 q 688 532 697 553 q 680 480 679 511 q 694 406 681 449 l 828 0 l 615 0 l 479 432 q 458 496 468 469 q 436 540 447 522 q 410 565 425 557 q 375 574 396 574 q 313 533 329 574 q 297 413 297 492 l 297 314 q 317 316 307 315 q 338 317 326 317 q 401 305 371 317 q 455 272 432 293 q 491 219 478 250 q 504 150 504 189 q 453 28 504 74 q 321 -17 401 -17 m 326 82 q 372 100 354 82 q 390 150 390 118 q 372 200 390 182 q 326 218 354 218 q 281 200 299 218 q 263 150 263 182 q 281 100 263 118 q 326 82 299 82 z "},"ฯ":{"ha":868,"x_min":49,"x_max":751,"o":"m 546 482 l 539 482 q 468 399 524 436 q 308 363 413 363 q 119 422 190 363 q 49 594 49 482 l 49 604 q 101 738 49 689 q 232 786 153 786 q 362 743 311 786 q 413 628 413 700 q 384 541 413 569 q 311 504 356 513 l 311 503 l 381 503 q 436 507 407 503 q 490 526 465 511 q 530 572 514 542 q 546 651 546 601 l 546 769 l 751 769 l 751 0 l 546 0 l 546 482 m 238 551 q 283 569 265 551 q 301 619 301 588 q 283 669 301 651 q 238 688 265 688 q 192 669 210 688 q 174 619 174 651 q 192 569 174 588 q 238 551 210 551 z "},"๚":{"ha":1186,"x_min":49,"x_max":1069,"o":"m 546 482 l 539 482 q 468 399 524 436 q 308 363 413 363 q 119 422 190 363 q 49 594 49 482 l 49 604 q 101 738 49 689 q 232 786 153 786 q 362 743 311 786 q 413 628 413 700 q 384 541 413 569 q 311 504 356 513 l 311 503 l 381 503 q 436 507 407 503 q 490 526 465 511 q 530 572 514 542 q 546 651 546 601 l 546 769 l 751 769 l 751 0 l 546 0 l 546 482 m 238 551 q 283 569 265 551 q 301 619 301 588 q 283 669 301 651 q 238 688 265 688 q 192 669 210 688 q 174 619 174 651 q 192 569 174 588 q 238 551 210 551 m 864 0 l 864 769 l 1069 769 l 1069 0 l 864 0 z "},"๏":{"ha":994,"x_min":69,"x_max":925,"o":"m 497 -17 q 319 11 399 -17 q 185 91 240 39 q 99 217 129 143 q 69 385 69 292 q 99 552 69 478 q 185 678 129 626 q 319 758 240 731 q 497 786 399 786 q 675 758 596 786 q 810 678 754 731 q 895 552 865 626 q 925 385 925 478 q 895 217 925 292 q 810 91 865 143 q 675 11 754 39 q 497 -17 596 -17 m 497 218 q 367 263 415 218 q 319 385 319 308 q 367 506 319 461 q 497 551 415 551 q 627 506 579 551 q 675 385 675 461 q 627 263 675 308 q 497 218 579 218 m 497 317 q 544 335 526 317 q 561 385 561 353 q 544 435 561 417 q 497 453 526 453 q 451 435 468 453 q 433 385 433 417 q 451 335 433 353 q 497 317 468 317 m 497 129 q 670 186 606 129 q 735 346 735 243 l 735 424 q 670 583 735 526 q 497 640 606 640 q 324 583 389 640 q 260 424 260 526 l 260 346 q 324 186 260 243 q 497 129 389 129 z "},"ๆ":{"ha":888,"x_min":57,"x_max":774,"o":"m 243 300 q 106 349 156 300 q 57 485 57 399 l 57 600 q 110 736 57 686 q 250 786 164 786 q 305 778 278 786 q 354 755 332 769 q 391 719 376 740 q 410 674 406 699 l 421 674 q 440 719 425 699 q 476 755 454 740 q 526 778 499 769 q 581 786 553 786 q 720 736 667 786 q 774 600 774 686 l 774 -278 l 568 -278 l 568 589 q 524 640 568 640 q 486 622 500 640 q 467 558 472 603 l 364 558 q 344 622 358 603 q 307 640 331 640 q 263 589 263 640 l 263 543 q 344 506 313 538 q 375 422 375 474 q 338 333 375 365 q 243 300 301 300 m 243 369 q 278 384 265 369 q 292 422 292 399 q 278 460 292 446 q 243 475 265 475 q 208 460 221 475 q 194 422 194 446 q 208 384 194 399 q 243 369 221 369 z "},"๛":{"ha":2085,"x_min":69,"x_max":1992,"o":"m 496 -17 q 319 10 399 -17 q 185 90 240 38 q 99 216 129 142 q 69 385 69 290 q 98 553 69 479 q 178 680 126 628 q 301 759 229 732 q 463 786 374 786 q 572 771 518 786 q 667 724 625 756 q 736 646 710 693 q 763 535 763 599 q 716 398 763 446 q 593 350 669 350 q 484 388 526 350 q 442 485 442 426 q 479 577 442 540 q 575 615 517 614 l 576 624 q 464 639 528 639 q 330 585 376 639 q 283 439 283 531 l 283 329 q 300 245 283 282 q 346 183 317 208 q 415 143 375 157 q 503 129 456 129 q 633 152 574 129 q 738 238 692 175 q 814 412 783 301 q 857 697 844 522 l 1057 697 l 1164 358 l 1168 358 l 1256 638 l 1411 638 l 1485 403 l 1489 403 l 1550 597 l 1706 597 q 1721 518 1710 556 q 1754 452 1732 481 q 1811 407 1776 424 q 1897 390 1846 390 l 1992 390 l 1992 244 l 1890 244 q 1808 251 1844 244 q 1743 273 1772 257 q 1690 314 1714 289 q 1643 376 1665 339 l 1639 376 l 1565 143 l 1408 143 l 1335 376 l 1331 376 l 1243 99 l 1088 99 l 982 433 l 978 433 q 903 204 951 292 q 792 67 856 117 q 653 1 729 18 q 496 -17 578 -17 m 592 436 q 633 451 617 436 q 649 494 649 467 q 633 538 649 522 q 592 553 617 553 q 551 538 567 553 q 535 494 535 522 q 551 451 535 467 q 592 436 567 436 z "},"่":{"ha":0,"x_min":-228,"x_max":-42,"o":"m -42 1229 l -62 901 l -207 901 l -228 1229 l -42 1229 z "},"ิ":{"ha":0,"x_min":-767,"x_max":-42,"o":"m -767 901 l -767 957 q -741 1080 -767 1025 q -667 1174 -715 1135 q -553 1234 -619 1213 q -404 1256 -486 1256 q -256 1234 -322 1256 q -141 1174 -189 1213 q -67 1080 -93 1135 q -42 957 -42 1025 l -42 901 l -767 901 m -404 1125 q -542 1092 -486 1125 q -608 1007 -597 1060 l -199 1007 q -265 1092 -210 1060 q -404 1125 -321 1125 z "},"๋":{"ha":0,"x_min":-446,"x_max":-42,"o":"m -181 1040 l -167 901 l -321 901 l -307 1040 l -446 1026 l -446 1174 l -307 1160 l -321 1299 l -167 1299 l -181 1160 l -42 1174 l -42 1026 l -181 1040 z "},"ํ":{"ha":0,"x_min":-408,"x_max":-42,"o":"m -225 907 q -357 952 -306 907 q -408 1079 -408 997 q -357 1206 -408 1161 q -225 1251 -306 1251 q -93 1206 -144 1251 q -42 1079 -42 1161 q -93 952 -42 997 q -225 907 -144 907 m -225 1011 q -179 1028 -196 1011 q -162 1068 -162 1044 l -162 1090 q -179 1131 -162 1114 q -225 1147 -196 1147 q -271 1131 -254 1147 q -287 1090 -287 1114 l -287 1068 q -271 1028 -287 1044 q -225 1011 -254 1011 z "},"ี":{"ha":0,"x_min":-775,"x_max":-42,"o":"m -775 957 q -753 1080 -775 1025 q -690 1174 -731 1135 q -594 1234 -650 1213 q -468 1256 -537 1256 q -310 1221 -376 1256 q -212 1124 -244 1186 l -208 1124 l -208 1314 l -42 1314 l -42 901 l -775 901 l -775 957 m -412 1125 q -550 1092 -494 1125 q -617 1007 -606 1060 l -207 1007 q -274 1092 -218 1060 q -412 1125 -329 1125 z "},"ื":{"ha":0,"x_min":-775,"x_max":-42,"o":"m -775 957 q -753 1080 -775 1025 q -692 1174 -731 1135 q -603 1234 -654 1213 q -493 1256 -551 1256 q -417 1247 -454 1256 l -417 1314 l -261 1314 l -261 1171 q -236 1148 -247 1160 q -214 1122 -225 1136 l -208 1122 l -208 1314 l -42 1314 l -42 901 l -775 901 l -775 957 m -425 1125 q -554 1092 -500 1125 q -618 1007 -608 1060 l -207 1007 q -276 1092 -218 1060 q -425 1125 -333 1125 z "},"ั":{"ha":0,"x_min":-731,"x_max":-42,"o":"m -421 890 q -651 942 -572 890 q -731 1099 -731 994 q -682 1226 -731 1182 q -558 1269 -633 1269 q -441 1229 -483 1269 q -399 1126 -399 1189 q -416 1061 -399 1086 q -453 1028 -433 1036 l -453 1025 l -392 1025 q -278 1072 -312 1025 q -243 1210 -243 1118 l -243 1236 l -42 1236 l -42 1210 q -137 966 -42 1042 q -421 890 -233 890 m -558 1043 q -515 1060 -531 1043 q -500 1107 -500 1076 q -515 1154 -500 1138 q -558 1171 -531 1171 q -601 1154 -586 1171 q -617 1107 -617 1138 q -601 1060 -617 1076 q -558 1043 -586 1043 z "},"์":{"ha":0,"x_min":-632,"x_max":-42,"o":"m -456 890 q -525 902 -493 890 q -581 935 -557 914 q -618 985 -604 956 q -632 1051 -632 1015 q -573 1185 -632 1143 q -417 1226 -514 1226 l -237 1226 l -215 1321 l -42 1288 l -57 1225 q -72 1178 -62 1200 q -97 1141 -81 1157 q -139 1116 -114 1125 q -201 1107 -164 1107 l -274 1107 q -294 1107 -285 1107 q -311 1110 -303 1107 l -312 1107 q -283 1033 -283 1078 q -328 931 -283 972 q -456 890 -374 890 m -453 989 q -409 1006 -425 989 q -393 1054 -393 1022 q -409 1103 -393 1086 q -453 1119 -425 1119 q -497 1103 -481 1119 q -512 1054 -512 1086 q -497 1006 -512 1022 q -453 989 -481 989 z "},"ึ":{"ha":0,"x_min":-897,"x_max":-42,"o":"m -218 944 q -237 944 -228 944 q -256 947 -246 944 l -256 901 l -897 901 l -897 957 q -875 1080 -897 1025 q -812 1174 -853 1135 q -716 1234 -772 1213 q -590 1256 -660 1256 q -468 1235 -522 1256 q -376 1179 -414 1215 q -314 1242 -356 1219 q -218 1264 -272 1264 q -92 1222 -142 1264 q -42 1104 -42 1179 q -92 987 -42 1029 q -218 944 -142 944 m -535 1125 q -672 1092 -617 1125 q -739 1007 -728 1060 l -362 1007 q -393 1090 -392 1042 q -535 1125 -450 1125 m -218 1036 q -172 1054 -190 1036 q -154 1104 -154 1072 q -172 1154 -154 1136 q -218 1172 -190 1172 q -264 1154 -246 1172 q -282 1104 -282 1136 q -264 1054 -282 1072 q -218 1036 -246 1036 z "},"้":{"ha":0,"x_min":-692,"x_max":-42,"o":"m -675 965 l -592 1014 l -592 1015 q -665 1059 -639 1028 q -692 1138 -692 1090 q -647 1244 -692 1204 q -522 1283 -601 1283 q -398 1244 -443 1283 q -353 1138 -353 1204 q -374 1067 -353 1097 q -439 1022 -396 1038 l -439 1011 l -271 1011 l -210 1194 l -42 1194 l -115 1031 q -150 967 -133 992 q -187 927 -167 942 q -235 907 -208 913 q -300 901 -262 901 l -675 901 l -675 965 m -522 1075 q -480 1092 -494 1075 q -465 1136 -465 1108 q -480 1181 -465 1164 q -522 1197 -494 1197 q -565 1181 -550 1197 q -579 1136 -579 1164 q -565 1092 -579 1108 q -522 1075 -550 1075 z "},"๊":{"ha":0,"x_min":-850,"x_max":-42,"o":"m -726 890 q -822 937 -793 890 q -850 1064 -850 983 q -812 1193 -850 1146 q -701 1240 -775 1240 q -617 1214 -649 1240 q -571 1135 -586 1188 l -562 1135 q -510 1214 -547 1188 q -418 1240 -472 1240 q -324 1210 -358 1240 q -289 1124 -289 1179 q -299 1066 -289 1096 q -329 1018 -310 1036 l -331 1011 l -225 1011 l -197 1194 l -42 1194 l -71 1063 q -94 987 -81 1018 q -129 937 -108 956 q -178 910 -150 918 q -246 901 -207 901 l -458 901 l -433 1065 q -442 1104 -429 1093 q -472 1115 -454 1115 q -509 1097 -497 1115 q -525 1046 -521 1078 l -608 1046 q -624 1097 -612 1078 q -661 1115 -636 1115 q -687 1107 -676 1115 q -700 1079 -697 1099 q -643 1047 -664 1072 q -622 986 -622 1022 q -651 916 -622 942 q -726 890 -679 890 m -729 949 q -702 958 -712 949 q -692 986 -692 968 q -702 1014 -692 1004 q -729 1024 -712 1024 q -756 1014 -746 1024 q -767 986 -767 1004 q -756 958 -767 968 q -729 949 -746 949 z "},"็":{"ha":0,"x_min":-692,"x_max":-42,"o":"m -531 890 q -647 933 -601 890 q -692 1068 -692 976 q -676 1150 -692 1113 q -633 1215 -661 1188 q -563 1258 -604 1243 q -472 1274 -522 1274 l -237 1274 l -215 1367 l -42 1333 l -57 1271 q -72 1224 -62 1246 q -97 1187 -81 1203 q -139 1162 -114 1171 q -201 1153 -164 1153 l -442 1153 q -510 1133 -482 1153 q -539 1071 -539 1113 q -522 1019 -539 1038 q -476 1000 -504 1000 q -430 1022 -447 1000 q -411 1088 -412 1043 l -312 1088 q -286 1018 -306 1042 q -225 986 -267 994 l -224 989 q -248 1012 -239 997 q -257 1051 -257 1026 q -233 1106 -257 1083 q -161 1128 -208 1128 q -83 1097 -110 1128 q -57 1022 -57 1067 q -97 927 -57 964 q -204 890 -137 890 q -318 917 -271 890 q -387 1000 -365 944 l -393 1000 q -440 918 -404 946 q -531 890 -476 890 m -162 992 q -135 1001 -146 992 q -125 1029 -125 1011 q -135 1057 -125 1047 q -162 1067 -146 1067 q -190 1057 -179 1067 q -200 1029 -200 1047 q -190 1001 -200 1011 q -162 992 -179 992 z "},"๎":{"ha":0,"x_min":-399,"x_max":-42,"o":"m -217 901 q -354 933 -310 901 q -399 1017 -399 964 q -390 1063 -399 1042 q -361 1099 -382 1083 q -306 1122 -340 1114 q -221 1131 -272 1131 l -221 1136 q -316 1174 -285 1146 q -347 1246 -347 1203 q -303 1326 -347 1293 q -172 1358 -258 1358 q -97 1350 -132 1358 q -42 1331 -62 1342 l -78 1232 q -106 1245 -89 1239 q -151 1251 -124 1251 q -189 1241 -174 1251 q -204 1211 -204 1231 q -188 1185 -204 1194 q -144 1175 -172 1175 l -112 1175 l -112 1088 l -176 1088 q -251 1047 -251 1088 q -238 1020 -251 1029 q -186 1011 -225 1011 l -132 1011 l -132 901 l -217 901 z "},"ฺ":{"ha":0,"x_min":-289,"x_max":-42,"o":"m -165 -368 q -262 -340 -235 -368 q -289 -271 -289 -311 l -289 -231 q -262 -162 -289 -190 q -165 -133 -235 -133 q -69 -162 -96 -133 q -42 -231 -42 -190 l -42 -271 q -69 -340 -42 -311 q -165 -368 -96 -368 z "},"ุ":{"ha":0,"x_min":-344,"x_max":-42,"o":"m -210 -410 q -307 -369 -269 -406 q -344 -272 -344 -332 q -302 -171 -344 -208 q -193 -133 -260 -133 q -84 -171 -126 -133 q -42 -272 -42 -208 l -42 -528 l -210 -528 l -210 -410 m -196 -324 q -160 -311 -174 -324 q -147 -272 -147 -299 q -160 -233 -147 -246 q -196 -221 -174 -221 q -231 -233 -218 -221 q -244 -272 -244 -246 q -231 -311 -244 -299 q -196 -324 -218 -324 z "},"ู":{"ha":0,"x_min":-644,"x_max":-42,"o":"m -342 -397 l -276 -397 q -225 -378 -240 -397 q -210 -319 -210 -360 l -210 -144 l -42 -144 l -42 -303 q -89 -466 -42 -403 q -236 -529 -136 -529 l -347 -529 q -460 -498 -429 -529 q -492 -418 -492 -467 l -492 -411 l -493 -411 q -602 -374 -560 -411 q -644 -272 -644 -336 q -602 -171 -644 -208 q -493 -133 -560 -133 q -384 -171 -426 -133 q -342 -272 -342 -208 l -342 -397 m -496 -324 q -460 -311 -474 -324 q -447 -272 -447 -299 q -460 -233 -447 -246 q -496 -221 -474 -221 q -531 -233 -518 -221 q -544 -272 -544 -246 q -531 -311 -544 -299 q -496 -324 -518 -324 z "}}}
